<?xml version="1.0" encoding="UTF-8" standalone="no"?><!DOCTYPE svg PUBLIC "-//W3C//DTD SVG 1.1//EN" "http://www.w3.org/Graphics/SVG/1.1/DTD/svg11.dtd"><svg width="100%" height="100%" viewBox="0 0 1250 884" version="1.1" xmlns="http://www.w3.org/2000/svg" xmlns:xlink="http://www.w3.org/1999/xlink" xml:space="preserve" xmlns:serif="http://www.serif.com/" style="fill-rule:evenodd;clip-rule:evenodd;stroke-linejoin:round;stroke-miterlimit:2;"><g><path d="M868.972,311.289c38.867,67.32 27.561,146.721 -25.233,177.202c-52.794,30.48 -127.211,0.571 -166.078,-66.749c-38.868,-67.32 -27.561,-146.722 25.233,-177.202c52.793,-30.481 127.211,-0.571 166.078,66.749Z" style="fill:#2364d2;"/><path d="M919.628,147.039c162.609,162.609 162.609,426.646 0,589.255c-162.61,162.61 -426.646,162.61 -589.256,0c-162.609,-162.609 -162.609,-426.646 0,-589.255c162.61,-162.61 426.646,-162.61 589.256,0Zm-143.506,146.997c83.451,83.451 83.451,218.954 0,302.405c-83.45,83.451 -218.953,83.451 -302.404,0c-83.451,-83.451 -83.451,-218.954 0,-302.405c83.451,-83.451 218.954,-83.451 302.404,0Z" style="fill:#2364d2;"/><path d="M35.744,441.667l279.897,-279.897c33.322,90.148 22.642,183.598 -36.829,243.068c-59.47,59.471 -152.92,70.151 -243.068,36.829Z" style="fill:#2364d2;"/><path d="M1214.26,441.667l-279.897,279.896c-33.322,-90.147 -22.642,-183.597 36.829,-243.068c59.47,-59.47 152.92,-70.151 243.068,-36.828Z" style="fill:#2364d2;"/></g></svg>