<?xml version="1.0" encoding="UTF-8" standalone="no"?><!DOCTYPE svg PUBLIC "-//W3C//DTD SVG 1.1//EN" "http://www.w3.org/Graphics/SVG/1.1/DTD/svg11.dtd"><svg width="100%" height="100%" viewBox="0 0 1250 209" version="1.1" xmlns="http://www.w3.org/2000/svg" xmlns:xlink="http://www.w3.org/1999/xlink" xml:space="preserve" xmlns:serif="http://www.serif.com/" style="fill-rule:evenodd;clip-rule:evenodd;stroke-linejoin:round;stroke-miterlimit:2;"><g><path d="M112.677,8.823c-2.825,0 -5.247,1.009 -7.265,3.027c-1.951,1.951 -2.926,4.339 -2.926,7.165l0,83.951c0,9.149 -3.263,16.985 -9.788,23.511c-6.458,6.457 -14.261,9.686 -23.409,9.686c-9.216,0 -17.053,-3.229 -23.511,-9.686c-6.525,-6.526 -9.787,-14.362 -9.787,-23.511c0,-9.148 3.262,-16.952 9.787,-23.409c6.458,-6.526 14.295,-9.788 23.511,-9.788c4.843,0 9.485,1.009 13.924,3.027c2.557,1.211 5.146,1.345 7.77,0.404c2.691,-1.009 4.608,-2.792 5.751,-5.348c1.211,-2.556 1.346,-5.146 0.404,-7.77c-1.009,-2.623 -2.792,-4.54 -5.348,-5.751c-7.13,-3.296 -14.631,-4.945 -22.501,-4.945c-14.8,0 -27.446,5.214 -37.94,15.64c-10.494,10.494 -15.741,23.141 -15.741,37.94c0,14.799 5.247,27.446 15.741,37.94c10.494,10.494 23.14,15.741 37.94,15.741c14.732,0 27.344,-5.247 37.838,-15.741c10.494,-10.494 15.741,-23.141 15.741,-37.94l0,-83.951c0,-2.826 -1.009,-5.214 -3.027,-7.165c-1.951,-2.018 -4.339,-3.027 -7.164,-3.027Z" style="fill:#2364d2;fill-rule:nonzero;"/><path d="M201.573,50.194c-2.825,-0.538 -5.684,-0.808 -8.577,-0.808c-10.965,0 -20.853,3.465 -29.665,10.393l0,-0.201c0,-2.826 -0.976,-5.214 -2.927,-7.164c-2.018,-2.019 -4.439,-3.028 -7.265,-3.028c-2.825,0 -5.213,1.009 -7.164,3.028c-2.018,1.95 -3.027,4.338 -3.027,7.164l0,86.877c0,2.826 1.009,5.214 3.027,7.165c1.951,2.018 4.339,3.027 7.164,3.027c2.826,0 5.247,-1.009 7.265,-3.027c1.951,-1.951 2.927,-4.339 2.927,-7.165l0,-43.489c0.067,-9.148 2.993,-16.952 8.778,-23.409c5.785,-6.526 12.748,-9.788 20.887,-9.788c1.615,0 3.229,0.168 4.843,0.504c2.758,0.539 5.315,0 7.669,-1.614c2.287,-1.614 3.7,-3.801 4.238,-6.559c0.538,-2.758 0,-5.314 -1.614,-7.668c-1.615,-2.355 -3.801,-3.767 -6.559,-4.238Z" style="fill:#2364d2;fill-rule:nonzero;"/><path d="M270.389,49.386c-14.799,0 -27.446,5.214 -37.94,15.64c-10.494,10.494 -15.741,23.141 -15.741,37.94c0,14.799 5.247,27.446 15.741,37.94c10.494,10.494 23.141,15.741 37.94,15.741c14.732,0 27.345,-5.247 37.839,-15.741c10.494,-10.494 15.741,-23.141 15.741,-37.94c0,-14.799 -5.247,-27.446 -15.741,-37.94c-10.494,-10.426 -23.107,-15.64 -37.839,-15.64Zm0,86.777c-9.216,0 -17.053,-3.229 -23.511,-9.686c-6.525,-6.526 -9.787,-14.362 -9.787,-23.511c0,-9.148 3.262,-16.952 9.787,-23.409c6.458,-6.526 14.295,-9.788 23.511,-9.788c9.149,0 16.952,3.262 23.41,9.788c6.525,6.457 9.787,14.261 9.787,23.409c0,9.149 -3.262,16.985 -9.787,23.511c-6.458,6.457 -14.261,9.686 -23.41,9.686Z" style="fill:#2364d2;fill-rule:nonzero;"/><path d="M390.161,49.386c-10.965,0 -20.853,3.465 -29.665,10.393l0,-0.201c0,-2.826 -0.976,-5.247 -2.927,-7.265c-2.018,-1.951 -4.439,-2.927 -7.265,-2.927c-2.825,0 -5.213,0.976 -7.164,2.927c-2.018,2.018 -3.027,4.439 -3.027,7.265l0,86.777c0,2.825 1.009,5.247 3.027,7.265c1.951,2.018 4.339,3.027 7.164,3.027c2.826,0 5.247,-1.009 7.265,-3.027c1.951,-2.018 2.927,-4.44 2.927,-7.265l0,-43.389c0,-9.148 2.926,-16.985 8.778,-23.51c5.785,-6.458 12.748,-9.687 20.887,-9.687c8.14,0 15.102,3.262 20.887,9.788c5.785,6.457 8.678,14.261 8.678,23.409l0,43.389c0,2.825 1.009,5.247 3.027,7.265c2.018,2.018 4.44,3.027 7.265,3.027c2.825,0 5.213,-1.009 7.164,-3.027c2.018,-2.018 3.027,-4.44 3.027,-7.265l0,-43.389c0,-14.799 -4.91,-27.446 -14.732,-37.94c-9.754,-10.426 -21.526,-15.64 -35.316,-15.64Z" style="fill:#2364d2;fill-rule:nonzero;"/><path d="M559.073,83.895l0,-0.201c-3.969,-10.293 -10.561,-18.6 -19.777,-24.924c-9.216,-6.256 -19.306,-9.384 -30.271,-9.384c-14.799,0 -27.445,5.214 -37.939,15.64c-10.494,10.494 -15.741,23.141 -15.741,37.94c0,14.799 5.247,27.446 15.741,37.94c10.494,10.494 23.14,15.741 37.939,15.741c17.423,0 31.516,-6.895 42.279,-20.686c1.749,-2.219 2.455,-4.742 2.119,-7.567c-0.404,-2.826 -1.716,-5.079 -3.935,-6.761c-2.22,-1.749 -4.709,-2.455 -7.467,-2.119c-2.826,0.337 -5.113,1.615 -6.862,3.835c-6.659,8.543 -15.371,12.814 -26.134,12.814c-9.216,0 -17.052,-3.229 -23.51,-9.686c-6.525,-6.526 -9.788,-14.362 -9.788,-23.511c0,-9.148 3.263,-16.952 9.788,-23.409c6.458,-6.526 14.294,-9.788 23.51,-9.788c10.629,0 19.306,4.238 26.033,12.714l-46.314,18.566c-2.624,1.009 -4.474,2.825 -5.55,5.449c-1.144,2.623 -1.177,5.213 -0.101,7.769c1.682,4.305 4.843,6.458 9.485,6.458c1.278,0 2.523,-0.235 3.733,-0.706l57.112,-22.905c2.623,-1.009 4.473,-2.826 5.549,-5.449c1.144,-2.624 1.178,-5.213 0.101,-7.77Z" style="fill:#2364d2;fill-rule:nonzero;"/><path d="M624.459,49.286c-14.799,0 -27.446,5.213 -37.94,15.64c-10.494,10.494 -15.741,23.14 -15.741,37.939c0,14.799 5.247,27.446 15.741,37.94c10.494,10.494 23.141,15.741 37.94,15.741c7.803,0 15.236,-1.615 22.299,-4.844c2.557,-1.21 4.306,-3.128 5.247,-5.751c1.009,-2.624 0.942,-5.247 -0.202,-7.871c-1.21,-2.556 -3.128,-4.305 -5.751,-5.247c-2.623,-1.009 -5.247,-0.908 -7.87,0.303c-4.306,1.951 -8.88,2.926 -13.723,2.926c-9.216,0 -17.053,-3.229 -23.511,-9.686c-6.525,-6.525 -9.787,-14.362 -9.787,-23.511c0,-9.148 3.262,-16.952 9.787,-23.409c6.458,-6.525 14.295,-9.788 23.511,-9.788c9.148,0 16.951,3.263 23.409,9.788c6.525,6.457 9.788,14.261 9.788,23.409l0,43.389c0,9.215 -3.263,17.052 -9.788,23.51c-6.458,6.525 -14.261,9.788 -23.409,9.788c-9.082,0 -16.885,-3.196 -23.41,-9.586c-1.951,-2.018 -4.339,-2.994 -7.164,-2.926c-2.825,0 -5.247,1.009 -7.265,3.027c-1.951,2.018 -2.926,4.44 -2.926,7.265c0,2.825 1.009,5.213 3.027,7.164c10.494,10.292 23.073,15.438 37.738,15.438c14.732,0 27.344,-5.247 37.838,-15.741c10.494,-10.494 15.741,-23.14 15.741,-37.939l0,-43.389c0,-14.799 -5.247,-27.445 -15.741,-37.939c-10.494,-10.427 -23.106,-15.64 -37.838,-15.64Z" style="fill:#2364d2;fill-rule:nonzero;"/><path d="M756.743,50.194c-2.825,-0.538 -5.684,-0.808 -8.577,-0.808c-10.965,0 -20.853,3.465 -29.665,10.393l0,-0.201c0,-2.826 -0.976,-5.214 -2.927,-7.164c-2.018,-2.019 -4.439,-3.028 -7.265,-3.028c-2.825,0 -5.213,1.009 -7.164,3.028c-2.018,1.95 -3.027,4.338 -3.027,7.164l0,86.877c0,2.826 1.009,5.214 3.027,7.165c1.951,2.018 4.339,3.027 7.164,3.027c2.826,0 5.247,-1.009 7.265,-3.027c1.951,-1.951 2.927,-4.339 2.927,-7.165l0,-43.489c0.067,-9.148 2.993,-16.952 8.778,-23.409c5.785,-6.526 12.748,-9.788 20.887,-9.788c1.615,0 3.229,0.168 4.844,0.504c2.758,0.539 5.314,0 7.668,-1.614c2.287,-1.614 3.7,-3.801 4.238,-6.559c0.538,-2.758 0,-5.314 -1.614,-7.668c-1.615,-2.355 -3.801,-3.767 -6.559,-4.238Z" style="fill:#2364d2;fill-rule:nonzero;"/><path d="M824.55,49.386c-14.799,0 -27.446,5.214 -37.94,15.64c-10.494,10.494 -15.741,23.141 -15.741,37.94c0,14.799 5.247,27.446 15.741,37.94c10.494,10.494 23.141,15.741 37.94,15.741c8.947,0 16.414,-1.648 22.4,-4.945c2.489,-1.345 4.138,-3.363 4.945,-6.054c0.807,-2.691 0.538,-5.28 -0.807,-7.769c-1.279,-2.489 -3.263,-4.137 -5.954,-4.945c-1.749,-0.538 -4.372,-0.269 -7.87,0.808c-4.373,1.547 -8.611,2.354 -12.714,2.421c-9.216,0 -17.053,-3.229 -23.511,-9.686c-6.525,-6.526 -9.787,-14.362 -9.787,-23.511c0,-9.148 3.262,-16.952 9.787,-23.409c6.458,-6.526 14.295,-9.788 23.511,-9.788c9.149,0 16.952,3.262 23.41,9.788c6.525,6.457 9.787,14.261 9.787,23.409l0,43.389c0,2.825 0.976,5.247 2.926,7.265c2.018,2.018 4.44,3.027 7.265,3.027c2.826,0 5.214,-1.009 7.165,-3.027c2.018,-2.018 3.027,-4.44 3.027,-7.265l0,-43.389c0,-14.799 -5.247,-27.446 -15.741,-37.94c-10.494,-10.426 -23.107,-15.64 -37.839,-15.64Z" style="fill:#2364d2;fill-rule:nonzero;"/><path d="M951.991,49.386c-14.799,0 -27.446,5.214 -37.94,15.64c-10.494,10.494 -15.741,23.141 -15.741,37.94l0,83.952c0,2.825 1.009,5.247 3.027,7.265c1.951,1.951 4.339,2.926 7.165,2.926c2.825,0 5.246,-0.975 7.265,-2.926c1.95,-2.018 2.926,-4.44 2.926,-7.265l0,-83.952c0,-9.148 3.262,-16.952 9.787,-23.409c6.458,-6.526 14.295,-9.788 23.511,-9.788c9.148,0 16.952,3.262 23.409,9.788c6.525,6.457 9.788,14.261 9.788,23.409c0,9.149 -3.263,16.985 -9.788,23.511c-6.457,6.457 -14.261,9.686 -23.409,9.686c-5.113,0 -9.956,-1.11 -14.53,-3.33c-2.556,-1.21 -5.146,-1.345 -7.77,-0.403c-2.691,0.942 -4.641,2.657 -5.852,5.146c-1.211,2.556 -1.379,5.18 -0.505,7.87c0.942,2.624 2.691,4.575 5.247,5.853c7.333,3.565 15.136,5.348 23.41,5.348c14.732,0 27.345,-5.247 37.839,-15.741c10.494,-10.494 15.741,-23.141 15.741,-37.94c0,-14.799 -5.247,-27.446 -15.741,-37.94c-10.494,-10.426 -23.107,-15.64 -37.839,-15.64Z" style="fill:#2364d2;fill-rule:nonzero;"/><path d="M1071.76,49.386c-10.965,0 -20.853,3.465 -29.665,10.393l0,-40.764c0,-2.826 -0.976,-5.214 -2.927,-7.165c-2.018,-2.018 -4.439,-3.027 -7.265,-3.027c-2.825,0 -5.213,1.009 -7.164,3.027c-2.018,1.951 -3.027,4.339 -3.027,7.165l0,127.34c0,2.825 1.009,5.247 3.027,7.265c1.951,2.018 4.339,3.027 7.164,3.027c2.826,0 5.247,-1.009 7.265,-3.027c1.951,-2.018 2.927,-4.44 2.927,-7.265l0,-43.389c0,-9.148 2.926,-16.985 8.778,-23.51c5.785,-6.458 12.748,-9.687 20.887,-9.687c8.14,0 15.102,3.262 20.887,9.788c5.785,6.457 8.678,14.261 8.678,23.409l0,43.389c0,2.825 1.009,5.247 3.027,7.265c2.018,2.018 4.44,3.027 7.265,3.027c2.825,0 5.213,-1.009 7.164,-3.027c2.018,-2.018 3.027,-4.44 3.027,-7.265l0,-43.389c0,-14.799 -4.91,-27.446 -14.732,-37.94c-9.754,-10.426 -21.526,-15.64 -35.316,-15.64Z" style="fill:#2364d2;fill-rule:nonzero;"/><path d="M1239.06,59.477c0,-2.826 -1.009,-5.247 -3.027,-7.265c-1.951,-1.951 -4.339,-2.926 -7.164,-2.926c-2.826,0 -5.247,0.975 -7.265,2.926c-2.019,2.018 -3.028,4.439 -3.028,7.265l0,43.388c0,9.149 -2.892,16.986 -8.677,23.511c-5.785,6.457 -12.748,9.686 -20.887,9.686c-8.14,0 -15.136,-3.229 -20.988,-9.686c-5.785,-6.525 -8.678,-14.362 -8.678,-23.511l0,-43.388c0,-2.826 -0.975,-5.247 -2.926,-7.265c-2.018,-1.951 -4.44,-2.926 -7.265,-2.926c-2.825,0 -5.213,0.975 -7.164,2.926c-2.018,2.018 -3.027,4.439 -3.027,7.265l0,43.388c0,14.799 4.877,27.446 14.631,37.94c9.821,10.494 21.627,15.741 35.417,15.741c10.897,0 20.752,-3.498 29.564,-10.494l0,0.303c0,9.148 -2.892,16.951 -8.677,23.409c-5.785,6.525 -12.748,9.788 -20.887,9.788c-10.225,0 -18.297,-4.709 -24.217,-14.127c-1.48,-2.354 -3.599,-3.868 -6.357,-4.54c-2.758,-0.606 -5.314,-0.135 -7.669,1.412c-2.421,1.48 -3.935,3.599 -4.54,6.357c-0.606,2.758 -0.168,5.314 1.311,7.669c4.642,7.399 10.629,13.185 17.961,17.355c7.333,4.171 15.169,6.256 23.511,6.256c13.79,0 25.562,-5.247 35.316,-15.741c9.821,-10.494 14.732,-23.14 14.732,-37.939l0,-86.777Z" style="fill:#2364d2;fill-rule:nonzero;"/></g></svg>