<?xml version="1.0" encoding="UTF-8" standalone="no"?>
<!DOCTYPE svg PUBLIC "-//W3C//DTD SVG 1.1//EN" "http://www.w3.org/Graphics/SVG/1.1/DTD/svg11.dtd">
<svg width="100%" height="100%" viewBox="0 0 69 77" version="1.1" xmlns="http://www.w3.org/2000/svg" xmlns:xlink="http://www.w3.org/1999/xlink" xml:space="preserve" xmlns:serif="http://www.serif.com/" style="fill-rule:evenodd;clip-rule:evenodd;stroke-linejoin:round;stroke-miterlimit:2;">
    <g transform="matrix(1,0,0,1,0.150003,0.146057)">
        <path d="M30.73,0.88L3.29,16.72C1.261,17.894 0.005,20.066 0,22.41L0,52.24C-0.003,55.728 1.866,58.961 4.89,60.7L30.73,75.63C32.761,76.798 35.269,76.798 37.3,75.63L64.74,59.79C65.734,59.207 66.561,58.377 67.14,57.38C67.711,56.382 68.008,55.25 68,54.1L68,22.41C67.995,20.068 66.744,17.898 64.72,16.72L40.58,2.78L37.3,0.88C35.269,-0.288 32.761,-0.288 30.73,0.88ZM6.57,24.29C6.571,23.146 7.181,22.085 8.17,21.51L30.73,8.51L32.38,7.56C33.369,6.991 34.591,6.991 35.58,7.56L37.27,8.56L59.8,21.56C60.788,22.131 61.4,23.189 61.4,24.33L61.4,44.84C61.393,46.596 59.946,48.037 58.19,48.037C57.629,48.037 57.077,47.89 56.59,47.61L37.32,36.37C35.384,35.319 33.062,35.241 31.06,36.16L30.78,36.3L11.38,47.52C10.893,47.8 10.341,47.947 9.78,47.947C8.02,47.947 6.572,46.5 6.57,44.74L6.57,24.29Z" style="fill:none;fill-rule:nonzero;stroke:rgb(255,111,96);stroke-width:0.3px;"/>
    </g>
</svg>
