<?xml version="1.0" encoding="UTF-8" standalone="no"?><!DOCTYPE svg PUBLIC "-//W3C//DTD SVG 1.1//EN" "http://www.w3.org/Graphics/SVG/1.1/DTD/svg11.dtd"><svg width="100%" height="100%" viewBox="0 0 2171 331" version="1.1" xmlns="http://www.w3.org/2000/svg" xmlns:xlink="http://www.w3.org/1999/xlink" xml:space="preserve" xmlns:serif="http://www.serif.com/" style="fill-rule:evenodd;clip-rule:evenodd;stroke-linejoin:round;stroke-miterlimit:2;"><g><path d="M140.883,0l-0,89.686c-11.983,-13.798 -29.775,-22.15 -54.102,-22.15c-47.566,0 -86.781,41.757 -86.781,95.859c0,54.101 39.215,95.858 86.781,95.858c24.327,-0 42.119,-8.351 54.102,-22.149l-0,17.066l54.464,-0l0,-254.17l-54.464,-0Zm-43.209,207.693c-25.054,-0 -43.209,-17.066 -43.209,-44.298c-0,-27.233 18.155,-44.298 43.209,-44.298c25.054,-0 43.209,17.065 43.209,44.298c-0,27.232 -18.155,44.298 -43.209,44.298Z" style="fill:#42a0f0;fill-rule:nonzero;"/><path d="M289.753,104.936l0,-32.316l-54.465,-0l0,181.55l54.465,-0l0,-82.061c0,-35.947 31.953,-45.024 54.465,-41.393l0,-61.727c-22.875,-0 -47.203,11.619 -54.465,35.947Z" style="fill:#42a0f0;fill-rule:nonzero;"/><path d="M451.332,259.253c53.376,-0 96.222,-41.757 96.222,-95.858c-0,-54.102 -42.846,-95.859 -96.222,-95.859c-53.375,0 -96.221,41.757 -96.221,95.859c0,54.101 42.846,95.858 96.221,95.858Zm0,-53.013c-23.601,0 -41.756,-17.065 -41.756,-42.845c0,-25.78 18.155,-42.846 41.756,-42.846c23.602,-0 41.757,17.066 41.757,42.846c-0,25.78 -18.155,42.845 -41.757,42.845Z" style="fill:#42a0f0;fill-rule:nonzero;"/><path d="M684.805,67.536c-23.964,0 -42.119,8.715 -51.923,22.15l0,-17.066l-54.465,-0l0,181.55l54.465,-0l0,-99.127c0,-25.78 13.798,-37.399 33.768,-37.399c17.429,0 31.59,10.53 31.59,33.042l-0,103.484l54.465,-0l-0,-111.472c-0,-49.018 -31.227,-75.162 -67.9,-75.162Z" style="fill:#42a0f0;fill-rule:nonzero;"/><path d="M838.759,185.181l128.901,-0c1.452,-6.899 2.178,-14.161 2.178,-21.786c0,-54.828 -39.214,-95.859 -92.227,-95.859c-57.37,0 -96.584,41.757 -96.584,95.859c-0,54.101 38.488,95.858 100.578,95.858c34.495,-0 61.364,-12.709 79.156,-37.399l-43.572,-25.054c-7.262,7.988 -19.971,13.798 -34.858,13.798c-19.97,-0 -36.673,-6.536 -43.572,-25.417Zm-1.089,-40.667c5.083,-18.519 18.881,-28.685 39.578,-28.685c16.339,-0 32.679,7.625 38.488,28.685l-78.066,-0Z" style="fill:#42a0f0;fill-rule:nonzero;"/><path d="M1169.91,72.62l-0,42.119c-14.887,-27.958 -42.846,-46.113 -78.066,-46.113c-51.924,-0 -94.043,41.03 -94.043,94.769c-0,53.738 42.119,94.769 94.043,94.769c35.22,-0 63.179,-18.155 78.066,-46.114l-0,33.405c-0,41.393 -26.869,67.9 -72.257,67.9c-39.941,-0 -60.274,-15.977 -69.715,-35.221l-15.976,9.078c13.071,26.506 43.209,43.571 85.691,43.571c50.108,0 90.412,-30.863 90.412,-85.328l-0,-172.835l-18.155,-0Zm-76.977,168.115c-43.209,-0 -76.977,-34.131 -76.977,-77.34c-0,-43.209 33.768,-77.34 76.977,-77.34c43.209,-0 76.977,34.131 76.977,77.34c-0,43.209 -33.768,77.34 -76.977,77.34Z" style="fill:#42a0f0;fill-rule:nonzero;"/><path d="M1262.13,108.204l0,-35.584l-18.155,-0l0,181.55l18.155,-0l0,-100.942c0,-46.477 29.411,-65.721 60.638,-65.721l-0,-17.429c-24.691,0 -48.292,9.441 -60.638,38.126Z" style="fill:#42a0f0;fill-rule:nonzero;"/><path d="M1508.31,72.62l0,41.03c-15.25,-27.232 -43.208,-45.024 -78.066,-45.024c-51.56,-0 -94.043,41.03 -94.043,94.769c0,53.738 42.483,94.769 94.043,94.769c34.858,-0 62.816,-17.792 78.066,-45.025l0,41.031l18.519,-0l-0,-181.55l-18.519,-0Zm-76.613,168.115c-43.209,-0 -76.978,-34.131 -76.978,-77.34c0,-43.209 33.769,-77.34 76.978,-77.34c43.208,-0 76.613,34.131 76.613,77.34c0,43.209 -33.405,77.34 -76.613,77.34Z" style="fill:#42a0f0;fill-rule:nonzero;"/><path d="M1678.97,68.626c-35.22,-0 -63.179,18.155 -78.066,46.113l-0,-42.119l-18.155,-0l-0,254.169l18.155,0l-0,-114.739c14.887,27.959 42.846,46.114 78.066,46.114c51.923,-0 94.043,-41.031 94.043,-94.769c-0,-53.739 -42.12,-94.769 -94.043,-94.769Zm-1.089,172.109c-43.209,-0 -76.977,-34.131 -76.977,-77.34c-0,-43.209 33.768,-77.34 76.977,-77.34c43.209,-0 76.977,34.131 76.977,77.34c-0,43.209 -33.768,77.34 -76.977,77.34Z" style="fill:#42a0f0;fill-rule:nonzero;"/><path d="M1900.1,68.626c-27.959,-0 -51.197,11.619 -64.995,38.488l-0,-107.114l-18.155,0l-0,254.17l18.155,-0l-0,-95.859c-0,-49.018 27.959,-72.256 63.542,-72.256c34.132,-0 53.376,21.785 53.376,55.191l-0,112.924l18.518,-0l-0,-112.924c-0,-43.935 -27.233,-72.62 -70.441,-72.62Z" style="fill:#42a0f0;fill-rule:nonzero;"/><path d="M2151,72.62l-63.179,161.579l-73.346,-161.579l-19.607,-0l83.512,184.817l-3.994,9.804c-11.256,26.506 -29.774,44.661 -54.101,42.483l-0,17.065c31.226,2.542 58.095,-21.059 71.893,-55.917l78.43,-198.252l-19.608,-0Z" style="fill:#42a0f0;fill-rule:nonzero;"/></g></svg>