<?xml version="1.0" encoding="UTF-8" standalone="no"?>
<!DOCTYPE svg PUBLIC "-//W3C//DTD SVG 1.1//EN" "http://www.w3.org/Graphics/SVG/1.1/DTD/svg11.dtd">
<svg width="100%" height="100%" viewBox="0 0 2977 441" version="1.1" xmlns="http://www.w3.org/2000/svg" xmlns:xlink="http://www.w3.org/1999/xlink" xml:space="preserve" xmlns:serif="http://www.serif.com/" style="fill-rule:evenodd;clip-rule:evenodd;stroke-linejoin:round;stroke-miterlimit:2;">
    <g transform="matrix(1,0,0,1,-886.671,-1937)">
        <g transform="matrix(0.234199,0,0,0.236832,1751.22,2292.45)">
            <g transform="matrix(-2.98445,0.0279046,-0.0284917,-2.97986,6370.09,2839.04)">
                <g transform="matrix(1,0,0,1,2307.72,983.268)">
                    <path d="M361.658,130.161L362.028,129.839L361.24,128.914C337.444,54.245 267.429,0 184.973,0C82.975,0 0,82.981 0,184.973C0,286.971 82.981,369.946 184.973,369.946C286.965,369.946 369.946,286.971 369.946,184.973C369.952,165.897 367.046,147.489 361.658,130.161Z" style="fill:white;"/>
                </g>
                <g transform="matrix(1,0,0,1,2307.72,983.268)">
                    <path d="M347.767,126.337C339.063,147.768 257.391,197.659 249.761,186.207C242.13,174.754 285.649,67.601 301.983,57.623C318.317,47.645 356.471,104.906 347.767,126.337Z" style="fill:rgb(227,215,89);"/>
                </g>
                <g transform="matrix(1,0,0,1,2307.72,983.268)">
                    <path d="M292.09,49.227C296.908,71.02 255.206,150.849 242.048,145.022C228.89,139.194 204.803,30.227 213.143,14.261C221.483,-1.705 287.272,27.434 292.09,49.227Z" style="fill:rgb(123,203,122);"/>
                </g>
                <g transform="matrix(1,0,0,1,2307.72,983.268)">
                    <path d="M238.681,184.973C238.681,211.776 218.919,233.991 193.213,237.977L184.806,238.663C177.622,238.645 170.766,237.195 164.507,234.594L150.061,225.691C146.94,223.006 144.148,219.969 141.707,216.639L134.135,202.128C132.309,196.734 131.277,190.976 131.277,184.967C131.277,172.938 135.299,161.857 142.005,152.901L154.577,140.746C163.229,134.779 173.701,131.265 184.978,131.265C195.078,131.267 204.537,134.072 212.616,138.943C228.221,148.351 238.681,165.465 238.681,184.973Z" style="fill:rgb(51,97,80);"/>
                </g>
                <g transform="matrix(1,0,0,1,2307.72,983.268)">
                    <path d="M105.5,31.344C103.891,12.407 182.848,-3.171 200.248,12.65C217.648,28.471 225.692,123.154 209.901,126.27C194.11,129.385 107.109,50.281 105.5,31.344Z" style="fill:rgb(122,207,162);"/>
                </g>
                <g transform="matrix(1,0,0,1,2307.72,983.268)">
                    <path d="M94.187,37.746C117.021,38.519 173.452,110.374 161.904,123.973C150.356,137.571 36.186,133.708 24.9,119.337C13.614,104.966 71.353,36.973 94.187,37.746Z" style="fill:rgb(97,185,204);"/>
                </g>
                <g transform="matrix(1,0,0,1,2307.72,983.268)">
                    <path d="M24.589,249.815C6.968,244.673 3.567,145.887 20.508,131.271C37.449,116.655 125.555,142.364 126.235,162.122C126.915,181.879 42.21,254.957 24.589,249.815Z" style="fill:rgb(117,131,203);"/>
                </g>
                <g transform="matrix(1,0,0,1,2307.72,983.268)">
                    <path d="M29.775,261.391C31.996,238.271 110.303,189.017 123.743,202.287C137.184,215.556 126.078,331.156 110.417,341.007C94.756,350.858 27.554,284.511 29.775,261.391Z" style="fill:rgb(162,121,203);"/>
                </g>
                <g transform="matrix(1,0,0,1,2307.72,983.268)">
                    <path d="M201.555,357.2C197.459,374.26 131.242,365.017 122.094,346.108C112.946,327.199 133.425,241.898 146.669,243.747C159.912,245.596 205.651,340.14 201.555,357.2Z" style="fill:rgb(200,102,171);"/>
                </g>
                <g transform="matrix(1,0,0,1,2307.72,983.268)">
                    <path d="M214.139,355.506C196.158,343.833 167.25,259.535 179.449,254.348C191.649,249.16 281.553,307.523 287.335,324.383C293.117,341.243 232.12,367.179 214.139,355.506Z" style="fill:rgb(223,102,107);"/>
                </g>
                <g transform="matrix(1,0,0,1,2307.72,983.268)">
                    <path d="M297.258,316.477C274.476,317.63 204.506,257.226 213.294,243.993C222.083,230.759 335.993,224.995 349.987,237.076C363.981,249.157 320.04,315.324 297.258,316.477Z" style="fill:rgb(255,185,114);"/>
                </g>
                <g transform="matrix(1,0,0,1,2307.72,983.268)">
                    <path d="M353.334,224.826C335.855,237.978 247.08,231.963 246.805,217.608C246.529,203.253 333.926,137.491 351.681,138.694C369.436,139.897 370.813,211.674 353.334,224.826Z" style="fill:rgb(255,214,50);"/>
                </g>
                <g transform="matrix(1.15404,1.41885,-2.18176,1.77456,1592.66,-4287.77)">
                    <ellipse cx="2622.47" cy="991.434" rx="11.989" ry="5.74" style="fill:rgb(255,253,253);"/>
                </g>
                <g transform="matrix(0.9237,0.774689,-1.43256,1.70811,1472.85,-2570.44)">
                    <ellipse cx="2622.47" cy="991.434" rx="11.989" ry="5.74" style="fill:rgb(255,250,250);"/>
                </g>
            </g>
        </g>
        <g transform="matrix(0.234199,0,0,0.236832,1751.22,2292.45)">
            <g transform="matrix(2.68303,0,0,2.6532,-4921.76,-2400.09)">
                <g transform="matrix(775.328,0,0,775.328,435.275,881.663)">
                    <path d="M0.418,-0.7L0.418,-0.453C0.385,-0.491 0.336,-0.514 0.269,-0.514C0.138,-0.514 0.03,-0.399 0.03,-0.25C0.03,-0.101 0.138,0.014 0.269,0.014C0.336,0.014 0.385,-0.009 0.418,-0.047L0.418,-0L0.568,-0L0.568,-0.7L0.418,-0.7ZM0.299,-0.128C0.23,-0.128 0.18,-0.175 0.18,-0.25C0.18,-0.325 0.23,-0.372 0.299,-0.372C0.368,-0.372 0.418,-0.325 0.418,-0.25C0.418,-0.175 0.368,-0.128 0.299,-0.128Z" style="fill:rgb(66,160,240);fill-rule:nonzero;"/>
                </g>
                <g transform="matrix(775.328,0,0,775.328,918.304,881.663)">
                    <path d="M0.205,-0.411L0.205,-0.5L0.055,-0.5L0.055,-0L0.205,-0L0.205,-0.226C0.205,-0.325 0.293,-0.35 0.355,-0.34L0.355,-0.51C0.292,-0.51 0.225,-0.478 0.205,-0.411Z" style="fill:rgb(66,160,240);fill-rule:nonzero;"/>
                </g>
                <g transform="matrix(775.328,0,0,775.328,1650.99,881.663)">
                    <path d="M0.348,-0.514C0.282,-0.514 0.232,-0.49 0.205,-0.453L0.205,-0.5L0.055,-0.5L0.055,-0L0.205,-0L0.205,-0.273C0.205,-0.344 0.243,-0.376 0.298,-0.376C0.346,-0.376 0.385,-0.347 0.385,-0.285L0.385,-0L0.535,-0L0.535,-0.307C0.535,-0.442 0.449,-0.514 0.348,-0.514Z" style="fill:rgb(66,160,240);fill-rule:nonzero;"/>
                </g>
                <g transform="matrix(775.328,0,0,775.328,2103.01,881.663)">
                    <path d="M0.189,-0.19L0.544,-0.19C0.548,-0.209 0.55,-0.229 0.55,-0.25C0.55,-0.401 0.442,-0.514 0.296,-0.514C0.138,-0.514 0.03,-0.399 0.03,-0.25C0.03,-0.101 0.136,0.014 0.307,0.014C0.402,0.014 0.476,-0.021 0.525,-0.089L0.405,-0.158C0.385,-0.136 0.35,-0.12 0.309,-0.12C0.254,-0.12 0.208,-0.138 0.189,-0.19ZM0.186,-0.302C0.2,-0.353 0.238,-0.381 0.295,-0.381C0.34,-0.381 0.385,-0.36 0.401,-0.302L0.186,-0.302Z" style="fill:rgb(66,160,240);fill-rule:nonzero;"/>
                </g>
                <g transform="matrix(747.976,0,0,747.976,2552.7,881.663)">
                    <path d="M0.521,-0.5L0.521,-0.384C0.48,-0.461 0.403,-0.511 0.306,-0.511C0.163,-0.511 0.047,-0.398 0.047,-0.25C0.047,-0.102 0.163,0.011 0.306,0.011C0.403,0.011 0.48,-0.039 0.521,-0.116L0.521,-0.024C0.521,0.09 0.447,0.163 0.322,0.163C0.212,0.163 0.156,0.119 0.13,0.066L0.086,0.091C0.122,0.164 0.205,0.211 0.322,0.211C0.46,0.211 0.571,0.126 0.571,-0.024L0.571,-0.5L0.521,-0.5ZM0.309,-0.037C0.19,-0.037 0.097,-0.131 0.097,-0.25C0.097,-0.369 0.19,-0.463 0.309,-0.463C0.428,-0.463 0.521,-0.369 0.521,-0.25C0.521,-0.131 0.428,-0.037 0.309,-0.037Z" style="fill:rgb(66,160,240);fill-rule:nonzero;"/>
                </g>
                <g transform="matrix(747.976,0,0,747.976,3037.38,881.663)">
                    <path d="M0.127,-0.402L0.127,-0.5L0.077,-0.5L0.077,-0L0.127,-0L0.127,-0.278C0.127,-0.406 0.208,-0.459 0.294,-0.459L0.294,-0.507C0.226,-0.507 0.161,-0.481 0.127,-0.402Z" style="fill:rgb(66,160,240);fill-rule:nonzero;"/>
                </g>
                <g transform="matrix(747.976,0,0,747.976,3252.8,881.663)">
                    <path d="M0.517,-0.5L0.517,-0.387C0.475,-0.462 0.398,-0.511 0.302,-0.511C0.16,-0.511 0.043,-0.398 0.043,-0.25C0.043,-0.102 0.16,0.011 0.302,0.011C0.398,0.011 0.475,-0.038 0.517,-0.113L0.517,-0L0.568,-0L0.568,-0.5L0.517,-0.5ZM0.306,-0.037C0.187,-0.037 0.094,-0.131 0.094,-0.25C0.094,-0.369 0.187,-0.463 0.306,-0.463C0.425,-0.463 0.517,-0.369 0.517,-0.25C0.517,-0.131 0.425,-0.037 0.306,-0.037Z" style="fill:rgb(66,160,240);fill-rule:nonzero;"/>
                </g>
                <g transform="matrix(747.976,0,0,747.976,3735.25,881.663)">
                    <path d="M0.342,-0.511C0.245,-0.511 0.168,-0.461 0.127,-0.384L0.127,-0.5L0.077,-0.5L0.077,0.2L0.127,0.2L0.127,-0.116C0.168,-0.039 0.245,0.011 0.342,0.011C0.485,0.011 0.601,-0.102 0.601,-0.25C0.601,-0.398 0.485,-0.511 0.342,-0.511ZM0.339,-0.037C0.22,-0.037 0.127,-0.131 0.127,-0.25C0.127,-0.369 0.22,-0.463 0.339,-0.463C0.458,-0.463 0.551,-0.369 0.551,-0.25C0.551,-0.131 0.458,-0.037 0.339,-0.037Z" style="fill:rgb(66,160,240);fill-rule:nonzero;"/>
                </g>
                <g transform="matrix(747.976,0,0,747.976,4217.69,881.663)">
                    <path d="M0.306,-0.511C0.229,-0.511 0.165,-0.479 0.127,-0.405L0.127,-0.7L0.077,-0.7L0.077,-0L0.127,-0L0.127,-0.264C0.127,-0.399 0.204,-0.463 0.302,-0.463C0.396,-0.463 0.449,-0.403 0.449,-0.311L0.449,-0L0.5,-0L0.5,-0.311C0.5,-0.432 0.425,-0.511 0.306,-0.511Z" style="fill:rgb(66,160,240);fill-rule:nonzero;"/>
                </g>
                <g transform="matrix(747.976,0,0,747.976,4632.07,881.663)">
                    <path d="M0.443,-0.5L0.269,-0.055L0.067,-0.5L0.013,-0.5L0.243,0.009L0.232,0.036C0.201,0.109 0.15,0.159 0.083,0.153L0.083,0.2C0.169,0.207 0.243,0.142 0.281,0.046L0.497,-0.5L0.443,-0.5Z" style="fill:rgb(66,160,240);fill-rule:nonzero;"/>
                </g>
                <g transform="matrix(775.328,0,0,775.328,5013.54,881.663)">
                    <path d="M0.14,0.014C0.192,0.014 0.235,-0.029 0.235,-0.081C0.235,-0.133 0.192,-0.176 0.14,-0.176C0.088,-0.176 0.045,-0.133 0.045,-0.081C0.045,-0.029 0.088,0.014 0.14,0.014Z" style="fill:rgb(66,160,240);fill-rule:nonzero;"/>
                </g>
            </g>
        </g>
    </g>
</svg>
